<svg width="341" height="241" viewBox="0 0 341 241" fill="none" xmlns="http://www.w3.org/2000/svg">
<path d="M155.253 47.992C155.253 20.6512 148.187 6.98081 134.056 6.98081C124.533 6.98081 116.622 10.744 110.325 18.2704C107.56 21.496 104.872 23.1088 102.261 23.1088C100.725 23.1088 100.341 22.4176 101.109 21.0352C110.478 7.5184 122.69 0.760003 137.742 0.760003C152.949 0.760003 162.933 9.1312 167.694 25.8736C169.538 32.4784 170.459 40.4656 170.459 49.8352C170.459 59.2048 168.386 70.4944 164.238 83.704C157.48 105.669 147.419 121.72 134.056 131.858C126.53 137.694 118.696 140.613 110.555 140.613C102.568 140.613 95.7328 138.693 90.0496 134.853C84.52 130.859 80.6032 125.714 78.2992 119.416C75.3808 111.275 73.9216 103.365 73.9216 95.6848C73.9216 87.8512 74.8432 80.3248 76.6864 73.1056C78.5296 65.8864 81.064 58.8208 84.2896 51.9088C87.5152 44.8432 91.7392 38.6992 96.9616 33.4768C102.184 28.2544 107.79 24.7984 113.781 23.1088C114.702 22.8016 115.394 23.032 115.854 23.8C116.469 24.568 116.699 25.4896 116.546 26.5648C116.392 27.64 116.008 28.2544 115.394 28.408C110.478 29.7904 105.947 34.3984 101.8 42.232C93.6592 56.9776 89.5888 76.408 89.5888 100.523C89.5888 110.2 91.3552 118.494 94.888 125.406C98.4208 132.165 103.49 135.544 110.094 135.544C123.15 135.544 134.21 124.869 143.272 103.518C151.259 84.9328 155.253 66.424 155.253 47.992Z" fill="#32D1F9"/>
<path d="M213.734 73.9062V74.5625C213.734 74.75 213.703 74.9375 213.641 75.125C212.953 76.4375 212.109 77.4375 211.109 78.125C210.109 78.8125 208.859 79.1562 207.359 79.1562C206.359 79.1562 205.609 79.0625 205.109 78.875C204.672 78.6875 204.078 78.3438 203.328 77.8438C202.203 77.9688 200.922 78.0938 199.484 78.2188C198.047 78.2812 196.609 78.4375 195.172 78.6875C193.734 78.875 192.359 79.1562 191.047 79.5312C189.797 79.9062 188.734 80.4688 187.859 81.2188C187.297 85.5312 186.984 89.8438 186.922 94.1562C186.922 98.4062 186.859 102.688 186.734 107C187.234 108.312 187.578 109.75 187.766 111.312C187.953 112.938 188.078 114.406 188.141 115.719C188.578 116.469 188.922 117.219 189.172 117.969C189.422 118.781 189.672 119.594 189.922 120.406C190.172 121.219 190.453 122 190.766 122.75C191.141 123.5 191.609 124.188 192.172 124.812C192.672 124.812 193.109 124.844 193.484 124.906C193.922 125.031 194.359 125.156 194.797 125.281V125.844C194.797 126.781 195.078 127.469 195.641 127.906C196.203 128.344 196.828 128.812 197.516 129.312C197.703 130 197.797 130.656 197.797 131.281C197.797 132.344 197.547 133.344 197.047 134.281C196.609 135.219 195.859 135.875 194.797 136.25C194.172 136.25 193.578 136.156 193.016 135.969C192.453 135.844 191.859 135.781 191.234 135.781C190.797 135.781 190.328 135.844 189.828 135.969C189.516 135.844 189.234 135.656 188.984 135.406C188.797 135.219 188.578 135.031 188.328 134.844C188.078 134.656 187.797 134.5 187.484 134.375C187.234 134.25 186.891 134.219 186.453 134.281C186.141 133.406 185.641 132.594 184.953 131.844C184.266 131.094 183.422 130.781 182.422 130.906C182.484 130.656 182.516 130.281 182.516 129.781C182.516 128.906 182.328 128.094 181.953 127.344C181.641 126.594 181.141 126 180.453 125.562C180.141 124.125 179.859 122.531 179.609 120.781C179.359 119.094 178.828 117.625 178.016 116.375C178.016 114.562 177.828 112.812 177.453 111.125C177.078 109.5 176.734 107.812 176.422 106.062C176.672 105.062 176.797 103.938 176.797 102.688C176.797 101.812 176.766 100.969 176.703 100.156C176.641 99.2812 176.609 98.4375 176.609 97.625C176.609 96.75 176.672 95.9062 176.797 95.0938C176.922 94.2188 177.234 93.375 177.734 92.5625C177.359 91.9375 177.109 91.3125 176.984 90.6875C176.859 90 176.797 89.3125 176.797 88.625C176.797 87.5625 176.859 86.5312 176.984 85.5312L177.359 82.5312C177.234 82.4688 177.016 82.4375 176.703 82.4375C176.078 82.4375 175.547 82.5625 175.109 82.8125L173.703 83.4688C173.391 83.4062 173.109 83.375 172.859 83.375H172.016C171.078 83.375 170.141 83.5312 169.203 83.8438C168.328 84.0938 167.547 84.5625 166.859 85.25C164.734 85.25 162.609 85.4688 160.484 85.9062C158.359 86.2812 156.234 86.75 154.109 87.3125C152.047 87.875 149.984 88.5 147.922 89.1875C145.859 89.8125 143.797 90.375 141.734 90.875C141.234 93.3125 140.859 95.7812 140.609 98.2812C140.359 100.719 140.234 103.219 140.234 105.781V108.031C140.234 108.844 140.297 109.625 140.422 110.375C140.484 110.875 140.641 111.312 140.891 111.688C141.203 112.125 141.359 112.594 141.359 113.094C141.359 113.531 141.266 113.875 141.078 114.125C141.516 114.875 142.172 115.531 143.047 116.094C143.984 115.781 144.797 115.625 145.484 115.625C146.609 115.625 147.672 115.875 148.672 116.375C149.672 116.938 150.734 117.312 151.859 117.5C151.609 118.375 151.234 119.219 150.734 120.031C150.234 120.906 149.922 121.844 149.797 122.844C149.547 122.969 149.297 123.031 149.047 123.031C148.859 123.031 148.672 123.031 148.484 123.031C148.297 123.094 148.141 123.219 148.016 123.406C147.953 123.594 147.984 123.969 148.109 124.531C147.234 124.969 146.359 125.25 145.484 125.375C144.609 125.562 143.703 125.688 142.766 125.75C141.891 125.812 140.984 125.844 140.047 125.844C139.172 125.844 138.266 125.875 137.328 125.938C137.328 125.562 137.234 125.25 137.047 125C136.922 124.812 136.734 124.656 136.484 124.531C136.234 124.469 135.953 124.375 135.641 124.25C135.391 124.125 135.172 123.969 134.984 123.781C134.484 123.344 134.078 122.75 133.766 122C133.516 121.312 133.234 120.562 132.922 119.75C132.672 119 132.391 118.25 132.078 117.5C131.766 116.75 131.391 116.062 130.953 115.438C130.828 114.062 130.734 112.719 130.672 111.406C130.609 110.094 130.578 108.75 130.578 107.375C130.578 104.812 130.672 102.312 130.859 99.875C131.047 97.375 131.203 94.8125 131.328 92.1875C130.766 91.625 130.109 91.375 129.359 91.4375C128.672 91.5 127.984 91.4375 127.297 91.25C126.547 90.3125 125.922 89.2812 125.422 88.1562C124.922 86.9688 124.672 85.75 124.672 84.5C124.672 83.875 124.766 83.2188 124.953 82.5312C125.516 82.3438 126.141 82.1562 126.828 81.9688C127.516 81.7812 127.891 81.2812 127.953 80.4688C128.391 80.7188 128.922 80.8438 129.547 80.8438C130.172 80.8438 130.797 80.75 131.422 80.5625C132.047 80.375 132.672 80.2188 133.297 80.0938C133.547 79.0938 133.734 78.125 133.859 77.1875C134.047 76.1875 134.078 75.1562 133.953 74.0938C134.828 72.7812 135.391 71.3438 135.641 69.7812C135.953 68.2188 136.172 66.7188 136.297 65.2812V63.9688C136.297 63.5312 136.328 63.0938 136.391 62.6562C136.516 61.9688 136.703 61.1875 136.953 60.3125C137.203 59.4375 137.422 58.625 137.609 57.875C137.922 56.6875 138.109 55.5625 138.172 54.5C138.297 53.4375 138.359 52.3438 138.359 51.2188V50.8438C138.359 50.5312 138.234 50.3125 137.984 50.1875C137.734 50 137.609 49.75 137.609 49.4375L137.703 49.25C137.953 47.25 138.234 45.2812 138.547 43.3438C138.922 41.3438 139.422 39.375 140.047 37.4375C139.547 36 139.297 34.375 139.297 32.5625C139.297 30.1875 139.672 27.9062 140.422 25.7188C140.047 24.7188 139.859 23.75 139.859 22.8125C139.859 22.0625 139.891 21.3125 139.953 20.5625C140.078 19.8125 140.109 19.0625 140.047 18.3125C140.672 18 141.172 17.5625 141.547 17C141.984 16.4375 142.484 15.9688 143.047 15.5938C144.922 15.5312 146.484 16.1562 147.734 17.4688C149.047 18.7812 149.703 20.375 149.703 22.25C149.703 23.6875 149.297 25.0625 148.484 26.375C148.734 27.5625 148.859 28.9375 148.859 30.5C148.859 32.8125 148.703 35.125 148.391 37.4375C148.078 39.75 147.984 42.0938 148.109 44.4688C147.734 45.3438 147.547 46.4062 147.547 47.6562C147.609 48.9062 147.578 49.9688 147.453 50.8438C147.328 51.7188 147.141 52.625 146.891 53.5625C146.641 54.4375 146.484 55.3125 146.422 56.1875C146.359 57.625 146.297 59.0625 146.234 60.5C146.234 61.9375 146.078 63.3125 145.766 64.625C145.641 65.125 145.453 65.5625 145.203 65.9375C145.016 66.25 144.859 66.625 144.734 67.0625C144.484 68.375 144.391 69.7188 144.453 71.0938C144.578 72.4062 144.578 73.75 144.453 75.125C144.391 75.5625 144.266 76 144.078 76.4375C143.953 76.875 143.891 77.3438 143.891 77.8438C143.891 78.0938 143.953 78.4062 144.078 78.7812C149.766 78.2812 155.422 77.4375 161.047 76.25C166.672 75.0625 172.328 74.0312 178.016 73.1562C178.453 72.3438 178.672 71.5 178.672 70.625C178.672 70.125 178.578 69.625 178.391 69.125C179.016 67.0625 179.484 65 179.797 62.9375C180.172 60.8125 180.484 58.7188 180.734 56.6562C180.984 54.5938 181.203 52.5312 181.391 50.4688C181.578 48.3438 181.828 46.25 182.141 44.1875L182.703 41C182.891 39.9375 183.141 38.9062 183.453 37.9062C183.578 37.5312 183.703 37.1562 183.828 36.7812C184.016 36.4062 184.109 36.0625 184.109 35.75C184.109 35.4375 183.922 35.2188 183.547 35.0938C183.234 34.9688 183.078 34.8125 183.078 34.625C183.078 34.5 183.109 34.4375 183.172 34.4375C183.297 34.375 183.391 34.375 183.453 34.4375C183.766 33.875 183.953 33.2812 184.016 32.6562C184.078 32.0312 184.109 31.4062 184.109 30.7812C184.172 30.1562 184.266 29.5625 184.391 29C184.516 28.375 184.766 27.8125 185.141 27.3125C185.078 26.875 184.953 26.4688 184.766 26.0938C184.578 25.7188 184.484 25.2812 184.484 24.7812C184.422 24.7188 184.422 24.6562 184.484 24.5938C184.609 24.0312 184.672 23.5625 184.672 23.1875C184.734 22.75 184.766 22.25 184.766 21.6875C184.766 20.9375 185.109 20.3438 185.797 19.9062C185.484 18.8438 185.266 17.6875 185.141 16.4375C185.016 15.1875 184.953 13.9688 184.953 12.7812C184.953 11.1562 185.328 9.8125 186.078 8.75C186.891 7.625 188.203 7.0625 190.016 7.0625C190.953 7.0625 191.828 7.25 192.641 7.625C193.516 8 194.234 8.53125 194.797 9.21875C195.109 10.6562 195.266 12 195.266 13.25C195.266 14.125 195.203 14.9688 195.078 15.7812C195.016 16.5312 194.984 17.3438 194.984 18.2188C194.984 18.9062 195.047 19.5625 195.172 20.1875C195.297 20.75 195.422 21.3438 195.547 21.9688C194.984 22.8438 194.578 23.8125 194.328 24.875C194.078 25.9375 193.891 27.0312 193.766 28.1562C193.703 29.2812 193.641 30.4375 193.578 31.625C193.578 32.75 193.547 33.7812 193.484 34.7188C193.297 36.7812 192.984 38.8125 192.547 40.8125C192.172 42.8125 191.734 44.8125 191.234 46.8125C191.422 47.5 191.516 48.125 191.516 48.6875C191.516 49.8125 191.359 50.9375 191.047 52.0625C190.734 53.125 190.641 54.1875 190.766 55.25C190.328 56.375 190.047 57.5312 189.922 58.7188C189.797 59.8438 189.703 61.0312 189.641 62.2812L189.453 65.9375C189.391 67.125 189.172 68.2812 188.797 69.4062C188.922 69.7188 189.141 69.9062 189.453 69.9688C189.828 69.9688 189.953 70.2188 189.828 70.7188C191.266 70.2812 192.797 70.0938 194.422 70.1562C196.047 70.1562 197.578 70.1562 199.016 70.1562C199.953 70.1562 200.891 70.1562 201.828 70.1562C202.766 70.0938 203.703 69.9688 204.641 69.7812C205.578 69.5312 206.516 69.25 207.453 68.9375C208.453 68.5625 209.422 68.375 210.359 68.375C211.672 68.375 212.672 68.8438 213.359 69.7812C213.484 70.4688 213.578 71.1562 213.641 71.8438C213.703 72.5312 213.734 73.2188 213.734 73.9062Z" fill="#E777C7"/>
<path d="M155.253 47.992C155.253 20.6512 148.187 6.98081 134.056 6.98081C124.533 6.98081 116.622 10.744 110.325 18.2704C107.56 21.496 104.872 23.1088 102.261 23.1088C100.725 23.1088 100.341 22.4176 101.109 21.0352C110.478 7.5184 122.69 0.760003 137.742 0.760003C152.949 0.760003 162.933 9.1312 167.694 25.8736C169.538 32.4784 170.459 40.4656 170.459 49.8352C170.459 59.2048 168.386 70.4944 164.238 83.704C157.48 105.669 147.419 121.72 134.056 131.858C126.53 137.694 118.696 140.613 110.555 140.613C102.568 140.613 95.7328 138.693 90.0496 134.853C84.52 130.859 80.6032 125.714 78.2992 119.416C75.3808 111.275 73.9216 103.365 73.9216 95.6848C73.9216 87.8512 74.8432 80.3248 76.6864 73.1056C78.5296 65.8864 81.064 58.8208 84.2896 51.9088C87.5152 44.8432 91.7392 38.6992 96.9616 33.4768C102.184 28.2544 107.79 24.7984 113.781 23.1088C114.702 22.8016 115.394 23.032 115.854 23.8C116.469 24.568 116.699 25.4896 116.546 26.5648C116.392 27.64 116.008 28.2544 115.394 28.408C110.478 29.7904 105.947 34.3984 101.8 42.232C93.6592 56.9776 89.5888 76.408 89.5888 100.523C89.5888 110.2 91.3552 118.494 94.888 125.406C98.4208 132.165 103.49 135.544 110.094 135.544C123.15 135.544 134.21 124.869 143.272 103.518C151.259 84.9328 155.253 66.424 155.253 47.992Z" fill="#32D1F9"/>
<path d="M53.4688 171.75V240H44.375L10.0156 187.359V240H0.96875V171.75H10.0156L44.5156 224.531V171.75H53.4688ZM65.8906 215.203V214.125C65.8906 210.469 66.4219 207.078 67.4844 203.953C68.5469 200.797 70.0781 198.062 72.0781 195.75C74.0781 193.406 76.5 191.594 79.3438 190.312C82.1875 189 85.375 188.344 88.9062 188.344C92.4688 188.344 95.6719 189 98.5156 190.312C101.391 191.594 103.828 193.406 105.828 195.75C107.859 198.062 109.406 200.797 110.469 203.953C111.531 207.078 112.062 210.469 112.062 214.125V215.203C112.062 218.859 111.531 222.25 110.469 225.375C109.406 228.5 107.859 231.234 105.828 233.578C103.828 235.891 101.406 237.703 98.5625 239.016C95.75 240.297 92.5625 240.938 89 240.938C85.4375 240.938 82.2344 240.297 79.3906 239.016C76.5469 237.703 74.1094 235.891 72.0781 233.578C70.0781 231.234 68.5469 228.5 67.4844 225.375C66.4219 222.25 65.8906 218.859 65.8906 215.203ZM74.5625 214.125V215.203C74.5625 217.734 74.8594 220.125 75.4531 222.375C76.0469 224.594 76.9375 226.562 78.125 228.281C79.3438 230 80.8594 231.359 82.6719 232.359C84.4844 233.328 86.5938 233.812 89 233.812C91.375 233.812 93.4531 233.328 95.2344 232.359C97.0469 231.359 98.5469 230 99.7344 228.281C100.922 226.562 101.812 224.594 102.406 222.375C103.031 220.125 103.344 217.734 103.344 215.203V214.125C103.344 211.625 103.031 209.266 102.406 207.047C101.812 204.797 100.906 202.812 99.6875 201.094C98.5 199.344 97 197.969 95.1875 196.969C93.4062 195.969 91.3125 195.469 88.9062 195.469C86.5312 195.469 84.4375 195.969 82.625 196.969C80.8438 197.969 79.3438 199.344 78.125 201.094C76.9375 202.812 76.0469 204.797 75.4531 207.047C74.8594 209.266 74.5625 211.625 74.5625 214.125ZM132.359 168V240H123.641V168H132.359Z" fill="#32D1F9"/>
<path d="M192.172 201.094V208.453H155.234V201.094H192.172ZM156.641 171.75V240H147.594V171.75H156.641ZM200.047 171.75V240H191.047V171.75H200.047ZM212.516 215.203V214.125C212.516 210.469 213.047 207.078 214.109 203.953C215.172 200.797 216.703 198.062 218.703 195.75C220.703 193.406 223.125 191.594 225.969 190.312C228.812 189 232 188.344 235.531 188.344C239.094 188.344 242.297 189 245.141 190.312C248.016 191.594 250.453 193.406 252.453 195.75C254.484 198.062 256.031 200.797 257.094 203.953C258.156 207.078 258.688 210.469 258.688 214.125V215.203C258.688 218.859 258.156 222.25 257.094 225.375C256.031 228.5 254.484 231.234 252.453 233.578C250.453 235.891 248.031 237.703 245.188 239.016C242.375 240.297 239.188 240.938 235.625 240.938C232.062 240.938 228.859 240.297 226.016 239.016C223.172 237.703 220.734 235.891 218.703 233.578C216.703 231.234 215.172 228.5 214.109 225.375C213.047 222.25 212.516 218.859 212.516 215.203ZM221.188 214.125V215.203C221.188 217.734 221.484 220.125 222.078 222.375C222.672 224.594 223.562 226.562 224.75 228.281C225.969 230 227.484 231.359 229.297 232.359C231.109 233.328 233.219 233.812 235.625 233.812C238 233.812 240.078 233.328 241.859 232.359C243.672 231.359 245.172 230 246.359 228.281C247.547 226.562 248.438 224.594 249.031 222.375C249.656 220.125 249.969 217.734 249.969 215.203V214.125C249.969 211.625 249.656 209.266 249.031 207.047C248.438 204.797 247.531 202.812 246.312 201.094C245.125 199.344 243.625 197.969 241.812 196.969C240.031 195.969 237.938 195.469 235.531 195.469C233.156 195.469 231.062 195.969 229.25 196.969C227.469 197.969 225.969 199.344 224.75 201.094C223.562 202.812 222.672 204.797 222.078 207.047C221.484 209.266 221.188 211.625 221.188 214.125ZM299.094 226.547C299.094 225.297 298.812 224.141 298.25 223.078C297.719 221.984 296.609 221 294.922 220.125C293.266 219.219 290.766 218.438 287.422 217.781C284.609 217.188 282.062 216.484 279.781 215.672C277.531 214.859 275.609 213.875 274.016 212.719C272.453 211.562 271.25 210.203 270.406 208.641C269.562 207.078 269.141 205.25 269.141 203.156C269.141 201.156 269.578 199.266 270.453 197.484C271.359 195.703 272.625 194.125 274.25 192.75C275.906 191.375 277.891 190.297 280.203 189.516C282.516 188.734 285.094 188.344 287.938 188.344C292 188.344 295.469 189.062 298.344 190.5C301.219 191.938 303.422 193.859 304.953 196.266C306.484 198.641 307.25 201.281 307.25 204.188H298.578C298.578 202.781 298.156 201.422 297.312 200.109C296.5 198.766 295.297 197.656 293.703 196.781C292.141 195.906 290.219 195.469 287.938 195.469C285.531 195.469 283.578 195.844 282.078 196.594C280.609 197.312 279.531 198.234 278.844 199.359C278.188 200.484 277.859 201.672 277.859 202.922C277.859 203.859 278.016 204.703 278.328 205.453C278.672 206.172 279.266 206.844 280.109 207.469C280.953 208.062 282.141 208.625 283.672 209.156C285.203 209.688 287.156 210.219 289.531 210.75C293.688 211.688 297.109 212.812 299.797 214.125C302.484 215.438 304.484 217.047 305.797 218.953C307.109 220.859 307.766 223.172 307.766 225.891C307.766 228.109 307.297 230.141 306.359 231.984C305.453 233.828 304.125 235.422 302.375 236.766C300.656 238.078 298.594 239.109 296.188 239.859C293.812 240.578 291.141 240.938 288.172 240.938C283.703 240.938 279.922 240.141 276.828 238.547C273.734 236.953 271.391 234.891 269.797 232.359C268.203 229.828 267.406 227.156 267.406 224.344H276.125C276.25 226.719 276.938 228.609 278.188 230.016C279.438 231.391 280.969 232.375 282.781 232.969C284.594 233.531 286.391 233.812 288.172 233.812C290.547 233.812 292.531 233.5 294.125 232.875C295.75 232.25 296.984 231.391 297.828 230.297C298.672 229.203 299.094 227.953 299.094 226.547ZM340.391 189.281V195.938H312.969V189.281H340.391ZM322.25 176.953H330.922V227.438C330.922 229.156 331.188 230.453 331.719 231.328C332.25 232.203 332.938 232.781 333.781 233.062C334.625 233.344 335.531 233.484 336.5 233.484C337.219 233.484 337.969 233.422 338.75 233.297C339.562 233.141 340.172 233.016 340.578 232.922L340.625 240C339.938 240.219 339.031 240.422 337.906 240.609C336.812 240.828 335.484 240.938 333.922 240.938C331.797 240.938 329.844 240.516 328.062 239.672C326.281 238.828 324.859 237.422 323.797 235.453C322.766 233.453 322.25 230.766 322.25 227.391V176.953Z" fill="#E777C7"/>
</svg>
